<?xml version="1.0" encoding="UTF-8" standalone="no"?>
<!-- Created with Inkscape (http://www.inkscape.org/) -->

<svg
   xmlns:dc="http://purl.org/dc/elements/1.1/"
   xmlns:cc="http://creativecommons.org/ns#"
   xmlns:rdf="http://www.w3.org/1999/02/22-rdf-syntax-ns#"
   xmlns:svg="http://www.w3.org/2000/svg"
   xmlns="http://www.w3.org/2000/svg"
   xmlns:xlink="http://www.w3.org/1999/xlink"
   xmlns:sodipodi="http://sodipodi.sourceforge.net/DTD/sodipodi-0.dtd"
   xmlns:inkscape="http://www.inkscape.org/namespaces/inkscape"
   version="1.1"
   width="48"
   height="48"
   id="svg3767"
   inkscape:version="0.48.0 r9654"
   sodipodi:docname="forum.svg"
   inkscape:export-filename="/home/roccivic/Desktop/forum.png"
   inkscape:export-xdpi="90"
   inkscape:export-ydpi="90">
  <metadata
     id="metadata60">
    <rdf:RDF>
      <cc:Work
         rdf:about="">
        <dc:format>image/svg+xml</dc:format>
        <dc:type
           rdf:resource="http://purl.org/dc/dcmitype/StillImage" />
        <dc:title></dc:title>
      </cc:Work>
    </rdf:RDF>
  </metadata>
  <sodipodi:namedview
     pagecolor="#ffffff"
     bordercolor="#666666"
     borderopacity="1"
     objecttolerance="10"
     gridtolerance="10"
     guidetolerance="10"
     inkscape:pageopacity="0"
     inkscape:pageshadow="2"
     inkscape:window-width="1280"
     inkscape:window-height="994"
     id="namedview58"
     showgrid="false"
     inkscape:zoom="16.291667"
     inkscape:cx="24"
     inkscape:cy="24"
     inkscape:window-x="0"
     inkscape:window-y="0"
     inkscape:window-maximized="1"
     inkscape:current-layer="svg3767" />
  <defs
     id="defs3769">
    <linearGradient
       inkscape:collect="always"
       id="linearGradient3817">
      <stop
         style="stop-color:#ffffff;stop-opacity:1;"
         offset="0"
         id="stop3819" />
      <stop
         style="stop-color:#ffffff;stop-opacity:0;"
         offset="1"
         id="stop3821" />
    </linearGradient>
    <linearGradient
       id="linearGradient3805">
      <stop
         style="stop-color:#8ae234;stop-opacity:1;"
         offset="0"
         id="stop3807" />
      <stop
         style="stop-color:#4e9106;stop-opacity:1;"
         offset="1"
         id="stop3809" />
    </linearGradient>
    <linearGradient
       id="linearGradient3718">
      <stop
         id="stop3720"
         style="stop-color:#ffffff;stop-opacity:1"
         offset="0" />
      <stop
         id="stop3722"
         style="stop-color:#ffffff;stop-opacity:0"
         offset="1" />
    </linearGradient>
    <linearGradient
       id="linearGradient4593">
      <stop
         id="stop12409"
         style="stop-color:#ffffff;stop-opacity:0.70200002"
         offset="0" />
      <stop
         id="stop12411"
         style="stop-color:#ffffff;stop-opacity:0"
         offset="1" />
    </linearGradient>
    <linearGradient
       id="linearGradient3707">
      <stop
         id="stop3709"
         style="stop-color:#707070;stop-opacity:1"
         offset="0" />
      <stop
         id="stop3711"
         style="stop-color:#a6a6a6;stop-opacity:1"
         offset="1" />
    </linearGradient>
    <linearGradient
       id="linearGradient8838">
      <stop
         id="stop8840"
         style="stop-color:#000000;stop-opacity:1"
         offset="0" />
      <stop
         id="stop8842"
         style="stop-color:#000000;stop-opacity:0"
         offset="1" />
    </linearGradient>
    <linearGradient
       id="linearGradient8838-7">
      <stop
         id="stop8840-5"
         style="stop-color:#000000;stop-opacity:1"
         offset="0" />
      <stop
         id="stop8842-9"
         style="stop-color:#000000;stop-opacity:0"
         offset="1" />
    </linearGradient>
    <linearGradient
       id="linearGradient3671-2">
      <stop
         id="stop3673-1"
         style="stop-color:#f6f6f6;stop-opacity:1"
         offset="0" />
      <stop
         id="stop3675-7"
         style="stop-color:#e5e5e5;stop-opacity:1"
         offset="0.26238" />
      <stop
         id="stop3677-8"
         style="stop-color:#cdcdcd;stop-opacity:1"
         offset="0.704952" />
      <stop
         id="stop3679-5"
         style="stop-color:#929292;stop-opacity:1"
         offset="1" />
    </linearGradient>
    <linearGradient
       id="linearGradient4593-9">
      <stop
         id="stop12409-7"
         style="stop-color:#ffffff;stop-opacity:0.70200002"
         offset="0" />
      <stop
         id="stop12411-5"
         style="stop-color:#ffffff;stop-opacity:0"
         offset="1" />
    </linearGradient>
    <linearGradient
       id="linearGradient2490-9">
      <stop
         id="stop2492-0"
         style="stop-color:#455f0e;stop-opacity:1"
         offset="0" />
      <stop
         id="stop2494-2"
         style="stop-color:#84a718;stop-opacity:1"
         offset="1" />
    </linearGradient>
    <linearGradient
       id="linearGradient2952">
      <stop
         id="stop2954"
         style="stop-color:#8ae234;stop-opacity:1;"
         offset="0" />
      <stop
         id="stop2960"
         style="stop-color:#5a7e0d;stop-opacity:1"
         offset="1" />
    </linearGradient>
    <linearGradient
       id="linearGradient3718-6">
      <stop
         id="stop3720-6"
         style="stop-color:#e9ffbb;stop-opacity:1"
         offset="0" />
      <stop
         id="stop3722-32"
         style="stop-color:#e0f9ab;stop-opacity:0"
         offset="1" />
    </linearGradient>
    <radialGradient
       cx="90.746872"
       cy="32.164093"
       r="23"
       fx="90.746872"
       fy="32.164093"
       id="radialGradient2940"
       xlink:href="#linearGradient3718-6"
       gradientUnits="userSpaceOnUse"
       gradientTransform="matrix(-0.20909449,-0.12655119,-0.0770597,0.09669675,61.042551,48.973433)" />
    <radialGradient
       cx="90.746872"
       cy="32.164093"
       r="23"
       fx="90.746872"
       fy="32.164093"
       id="radialGradient2943"
       xlink:href="#linearGradient3718"
       gradientUnits="userSpaceOnUse"
       gradientTransform="matrix(0.23467889,-0.16298347,0.08648858,0.12453437,-16.163794,42.047583)" />
    <radialGradient
       cx="20.580984"
       cy="-0.18921867"
       r="21.995602"
       fx="20.580984"
       fy="-0.18921867"
       id="radialGradient2947"
       xlink:href="#linearGradient4593-9"
       gradientUnits="userSpaceOnUse"
       gradientTransform="matrix(0,0.76962937,0.66812241,0,26.290744,11.869801)" />
    <radialGradient
       cx="20.248743"
       cy="4.9115634"
       r="23"
       fx="20.248743"
       fy="4.9115634"
       id="radialGradient2950"
       xlink:href="#linearGradient2952"
       gradientUnits="userSpaceOnUse"
       gradientTransform="matrix(0,0.96411103,0.81044679,0,27.862157,1.7934145)" />
    <linearGradient
       x1="18.138792"
       y1="45.21809"
       x2="18.138792"
       y2="2.9999995"
       id="linearGradient2953"
       xlink:href="#linearGradient2490-9"
       gradientUnits="userSpaceOnUse"
       gradientTransform="matrix(-0.54458366,0,0,0.54458366,44.290345,19.687914)" />
    <radialGradient
       cx="62.625"
       cy="4.625"
       r="10.625"
       fx="62.625"
       fy="4.625"
       id="radialGradient2956"
       xlink:href="#linearGradient8838-7"
       gradientUnits="userSpaceOnUse"
       gradientTransform="matrix(-1.1788635,0,0,0.41003893,105.04666,39.574828)" />
    <radialGradient
       cx="22.628695"
       cy="12.089384"
       r="23"
       fx="22.628695"
       fy="12.089384"
       id="radialGradient2965"
       xlink:href="#linearGradient3671-2"
       gradientUnits="userSpaceOnUse"
       gradientTransform="matrix(-0.60316066,0.99203599,-1.158307,-0.70425387,36.130173,-7.9485178)" />
    <linearGradient
       x1="18.138792"
       y1="45.21809"
       x2="18.138792"
       y2="2.9999995"
       id="linearGradient2967"
       xlink:href="#linearGradient3707"
       gradientUnits="userSpaceOnUse"
       gradientTransform="matrix(0.71702286,0,0,0.71702286,1.9100949,3.4134111)" />
    <radialGradient
       cx="62.625"
       cy="4.625"
       r="10.625"
       fx="62.625"
       fy="4.625"
       id="radialGradient2970"
       xlink:href="#linearGradient8838"
       gradientUnits="userSpaceOnUse"
       gradientTransform="matrix(1.5521436,0,0,0.53987534,-78.084353,29.597399)" />
    <linearGradient
       x1="-25.22875"
       y1="17.042774"
       x2="-22.012486"
       y2="38.486401"
       id="linearGradient3744"
       xlink:href="#linearGradient4593"
       gradientUnits="userSpaceOnUse"
       gradientTransform="matrix(0.98451784,0,0,0.9634668,32.331251,-11.674266)" />
    <linearGradient
       inkscape:collect="always"
       xlink:href="#linearGradient3805"
       id="linearGradient3815"
       gradientUnits="userSpaceOnUse"
       x1="26.015778"
       y1="23.489367"
       x2="40.107754"
       y2="46.01622" />
    <linearGradient
       inkscape:collect="always"
       xlink:href="#linearGradient3817"
       id="linearGradient3823"
       x1="23.630251"
       y1="20.914368"
       x2="30.889244"
       y2="40.49493"
       gradientUnits="userSpaceOnUse" />
    <radialGradient
       inkscape:collect="always"
       xlink:href="#linearGradient3718"
       id="radialGradient3825"
       gradientUnits="userSpaceOnUse"
       gradientTransform="matrix(0.23467889,-0.16298347,0.08648858,0.12453437,-16.041032,42.170345)"
       cx="90.746872"
       cy="32.164093"
       fx="90.746872"
       fy="32.164093"
       r="23" />
  </defs>
  <path
     d="m 35.610167,32.094326 c 0,3.168006 -7.383508,5.736182 -16.491526,5.736182 -9.108017,0 -16.4915255,-2.568176 -16.4915255,-5.736182 0,-3.168007 7.3835085,-5.736183 16.4915255,-5.736183 9.108018,0 16.491526,2.568176 16.491526,5.736183 l 0,0 z"
     id="path8836"
     style="opacity:0.3;fill:url(#radialGradient2970);fill-opacity:1;fill-rule:evenodd;stroke:none;stroke-width:0.99999988;marker:none;visibility:visible;display:inline;overflow:visible" />
  <path
     d="M 16.833262,6.1261547 C 8.5746069,7.3437399 2.4637033,13.033923 3.0189457,19.194884 c 0.3595432,3.989474 3.4215831,7.273152 7.8004203,9.005666 l -1.8277869,7.122081 8.0859969,-5.847979 0.0559,-0.0051 c 0.997871,0.0477 2.000372,0.06351 3.040681,-0.03141 8.877302,-0.809917 15.62671,-6.716983 15.044156,-13.18094 C 34.635762,9.7932586 26.9404,5.2040431 18.063099,6.0139521 c -0.416123,0.037965 -0.823672,0.052321 -1.229837,0.1122026 z"
     id="path6145"
     style="fill:url(#radialGradient2965);fill-opacity:1;fill-rule:evenodd;stroke:url(#linearGradient2967);stroke-width:1;stroke-linecap:butt;stroke-linejoin:round;stroke-miterlimit:4;stroke-opacity:1;stroke-dasharray:none;stroke-dashoffset:0;marker:none;visibility:visible;display:inline;overflow:visible" />
  <path
     d="M 17.064399,7.1518456 C 9.8436101,8.1810074 3.4767443,12.761548 3.9789389,18.963797 c 0.3373076,4.165856 3.6583581,6.992732 7.7766281,8.306899 l -1.383815,5.566475 6.464547,-4.548312 c 0.871986,0.03707 2.21361,0.103189 3.123038,0.022 C 26.835631,27.696917 34.849379,22.698996 34.273554,16.485011 33.660017,9.9041486 25.650905,6.3852119 18.139511,7.0558512 c -0.36377,0.032479 -0.719992,0.045379 -1.075112,0.09599 z"
     id="path6179"
     style="fill:none;stroke:url(#linearGradient3744);stroke-width:1;stroke-linecap:butt;stroke-linejoin:miter;stroke-miterlimit:4;stroke-opacity:1;stroke-dasharray:none;stroke-dashoffset:0;marker:none;visibility:visible;display:inline;overflow:visible" />
  <path
     d="m 9.6070098,34.513951 1.5402932,-6.498175 5.757041,1.126378 -7.2973342,5.371797 z"
     id="path3705"
     style="fill:#bfbfbf;fill-opacity:1;stroke-width:1px" />
  <path
     d="m 18.694915,41.47126 c 0,2.406122 5.607824,4.35667 12.525424,4.35667 6.9176,0 12.525424,-1.950548 12.525424,-4.35667 0,-2.406122 -5.607824,-4.356669 -12.525424,-4.356669 -6.9176,0 -12.525424,1.950547 -12.525424,4.356669 l 0,0 z"
     id="path8836-8"
     style="opacity:0.3;fill:url(#radialGradient2956);fill-opacity:1;fill-rule:evenodd;stroke:none;stroke-width:0.99999988;marker:none;visibility:visible;display:inline;overflow:visible" />
  <path
     d="m 32.9561,21.748261 c 6.272504,0.924764 10.913776,5.246496 10.492065,9.925787 -0.273075,3.030032 -2.598715,5.524008 -5.924471,6.839864 l 1.388216,5.409268 -6.141369,-4.441579 -0.04246,-0.0039 c -0.75789,0.03622 -1.519296,0.04823 -2.309418,-0.02385 -6.74237,-0.615137 -11.86859,-5.101594 -11.426137,-10.011012 0.442451,-4.909419 6.28713,-8.394959 13.029499,-7.779828 0.316048,0.02884 0.625585,0.03974 0.93407,0.08522 z"
     id="path6145-9"
     style="fill:url(#linearGradient3815);fill-opacity:1;fill-rule:evenodd;stroke:#4e9a06;stroke-width:1;stroke-linecap:butt;stroke-linejoin:round;stroke-miterlimit:4;stroke-opacity:1;stroke-dasharray:none;stroke-dashoffset:0;marker:none;visibility:visible;display:inline;overflow:visible"
     inkscape:connector-curvature="0" />
  <path
     d="m 27.723186,21.041644 c 0.929615,-0.04627 1.878434,-0.02544 2.854878,0.05219 0.381322,0.03032 0.73732,0.04321 1.078066,0.08699 3.62543,0.465803 6.771597,1.787268 8.943955,3.566642 2.172359,1.779373 3.372546,4.01251 3.134377,6.315565 -0.308432,2.982487 -2.95907,5.465152 -6.787822,6.785319 a 0.28749348,0.25054289 0 0 0 -0.179677,0.295771 l 1.43742,4.854113 -6.568217,-4.140785 a 0.28749348,0.25054289 0 0 0 -0.159714,-0.03479 l -0.03993,0 a 0.28749348,0.25054289 0 0 0 -0.01997,0 c -0.880311,0.03666 -1.765493,0.03753 -2.675201,-0.03479 -3.89842,-0.309957 -7.324604,-1.598263 -9.702594,-3.410058 -2.377991,-1.811794 -3.703698,-4.142719 -3.453804,-6.559141 0.218638,-2.114214 1.610006,-3.96382 3.77323,-5.34127 2.163224,-1.37745 5.10577,-2.273549 8.364994,-2.435756 z"
     id="path3845-4"
     style="fill:url(#radialGradient2940);fill-opacity:1;fill-rule:evenodd;stroke:none;stroke-width:1;marker:none;visibility:visible;display:inline;overflow:visible"
     inkscape:connector-curvature="0" />
  <path
     d="M 21.355229,6.197391 C 20.311868,6.137806 19.246953,6.164627 18.151033,6.264612 17.723054,6.303658 17.323496,6.320264 16.941057,6.3766468 12.872028,6.9765495 10.76463,9.797089 8.3264661,12.088719 c -2.438164,2.291629 -5.208933,4.04901 -4.941622,7.015083 0.346171,3.841103 3.321136,7.038491 7.6183679,8.738716 0.147647,0.05432 0.239738,0.228273 0.201662,0.380919 L 9.5915731,34.47498 16.963464,29.142122 c 0.05373,-0.03186 0.116856,-0.04765 0.179256,-0.04481 l 0.04481,0 c 0.0075,-2.59e-4 0.01494,-2.59e-4 0.02241,0 0.988024,0.04722 1.981515,0.04834 3.002533,-0.04481 4.375423,-0.399189 8.220827,-2.05838 10.889784,-4.391765 2.668957,-2.333384 4.156875,-5.335349 3.876404,-8.447425 C 34.733271,13.490445 33.171658,11.108364 30.743746,9.334366 28.315834,7.5603683 25.013245,6.4062954 21.355229,6.197391 z"
     id="path3845"
     style="fill:url(#radialGradient3825);fill-opacity:1;fill-rule:evenodd;stroke:none;stroke-width:1;marker:none;visibility:visible;display:inline;overflow:visible"
     inkscape:connector-curvature="0" />
  <path
     sodipodi:type="inkscape:offset"
     inkscape:radius="-1.0260844"
     inkscape:original="M 32.03125 21.65625 C 25.288881 21.041119 19.442451 24.528081 19 29.4375 C 18.557547 34.346918 23.66388 38.853613 30.40625 39.46875 C 31.196372 39.54083 31.96086 39.50497 32.71875 39.46875 L 32.78125 39.46875 L 38.90625 43.9375 L 37.53125 38.5 C 40.857006 37.184144 43.164425 34.717532 43.4375 31.6875 C 43.859211 27.008209 39.241254 22.674764 32.96875 21.75 C 32.660265 21.70452 32.347298 21.68509 32.03125 21.65625 z "
     xlink:href="#path6145-9"
     style="fill:none;stroke:url(#linearGradient3823);stroke-width:1;stroke-linecap:butt;stroke-linejoin:round;stroke-miterlimit:4;stroke-opacity:1;stroke-dasharray:none;stroke-dashoffset:0;marker:none;visibility:visible;display:inline;overflow:visible;opacity:0.80769231"
     id="path3813"
     inkscape:href="#path6145-9"
     d="m 31.9375,22.6875 c -3.169759,-0.289189 -6.103297,0.374869 -8.25,1.65625 -2.146703,1.281381 -3.46934,3.113556 -3.65625,5.1875 -0.187033,2.075298 0.778194,4.096529 2.65625,5.75 1.878056,1.653471 4.643766,2.867152 7.8125,3.15625 0.699826,0.06384 1.398967,0.03619 2.15625,0 a 1.026187,1.026187 0 0 1 0.0625,0 l 0.0625,0 A 1.026187,1.026187 0 0 1 33.375,38.625 l 3.84375,2.78125 -0.6875,-2.65625 a 1.026187,1.026187 0 0 1 0.625,-1.21875 c 3.068825,-1.2142 5.018837,-3.372525 5.25,-5.9375 C 42.58451,29.61578 41.710486,27.680497 40,26.0625 38.289514,24.444503 35.755903,23.18395 32.8125,22.75 c -0.251135,-0.03702 -0.539438,-0.03188 -0.875,-0.0625 z" />
</svg>
